<svg width="22" height="22" viewBox="0 0 22 22" fill="none" xmlns="http://www.w3.org/2000/svg">
<path d="M4.5 1.5L2.25 4.5V15C2.25 15.3978 2.40804 15.7794 2.68934 16.0607C2.97064 16.342 3.35218 16.5 3.75 16.5H14.25C14.6478 16.5 15.0294 16.342 15.3107 16.0607C15.592 15.7794 15.75 15.3978 15.75 15V4.5L13.5 1.5H4.5Z" stroke="black" stroke-linecap="round" stroke-linejoin="round"/>
<path d="M12 7.5C12 8.29565 11.6839 9.05871 11.1213 9.62132C10.5587 10.1839 9.79565 10.5 9 10.5C8.20435 10.5 7.44129 10.1839 6.87868 9.62132C6.31607 9.05871 6 8.29565 6 7.5" stroke="black" stroke-linecap="round" stroke-linejoin="round"/>
<path d="M2.25 4.5H15.75" stroke="black" stroke-linecap="round" stroke-linejoin="round"/>
<circle cx="16.5" cy="16.5" r="5.5" fill="#FF1D0E"/>
<path d="M18.1853 14.452H15.5053V16.044C15.6173 15.8947 15.7826 15.7693 16.0013 15.668C16.2253 15.5667 16.4626 15.516 16.7133 15.516C17.1613 15.516 17.524 15.612 17.8013 15.804C18.084 15.996 18.284 16.2387 18.4013 16.532C18.524 16.8253 18.5853 17.1347 18.5853 17.46C18.5853 17.8547 18.508 18.2067 18.3533 18.516C18.204 18.82 17.9773 19.06 17.6733 19.236C17.3746 19.412 17.0066 19.5 16.5693 19.5C15.988 19.5 15.5213 19.356 15.1693 19.068C14.8173 18.78 14.6066 18.3987 14.5373 17.924H15.4253C15.484 18.1747 15.6146 18.3747 15.8173 18.524C16.02 18.668 16.2733 18.74 16.5773 18.74C16.956 18.74 17.2386 18.6253 17.4253 18.396C17.6173 18.1667 17.7133 17.8627 17.7133 17.484C17.7133 17.1 17.6173 16.8067 17.4253 16.604C17.2333 16.396 16.9506 16.292 16.5773 16.292C16.316 16.292 16.0946 16.3587 15.9133 16.492C15.7373 16.62 15.6093 16.796 15.5293 17.02H14.6653V13.652H18.1853V14.452Z" fill="white"/>
</svg>
