<svg width="42" height="40" viewBox="0 0 42 40" fill="none" xmlns="http://www.w3.org/2000/svg">
<rect x="0.266602" width="41.6724" height="40" rx="10" fill="#0FAFE9" fill-opacity="0.1"/>
<path d="M21.1036 28.3334C25.8984 28.3334 29.7854 24.6024 29.7854 20C29.7854 15.3976 25.8984 11.6667 21.1036 11.6667C16.3088 11.6667 12.4219 15.3976 12.4219 20C12.4219 24.6024 16.3088 28.3334 21.1036 28.3334Z" stroke="#0FAFE9" stroke-linecap="round" stroke-linejoin="round"/>
<path d="M21.1035 24.1667H21.1122" stroke="#0FAFE9" stroke-linecap="round" stroke-linejoin="round"/>
<path d="M18.5771 17.5C18.7813 16.943 19.1841 16.4734 19.7144 16.1743C20.2447 15.8751 20.8682 15.7658 21.4744 15.8656C22.0806 15.9654 22.6305 16.2679 23.0266 16.7196C23.4227 17.1713 23.6395 17.7429 23.6386 18.3333C23.6386 20 21.0341 20.8333 21.0341 20.8333" stroke="#0FAFE9" stroke-linecap="round" stroke-linejoin="round"/>
</svg>
