<svg width="43" height="40" viewBox="0 0 43 40" fill="none" xmlns="http://www.w3.org/2000/svg">
<rect x="0.489258" width="41.6724" height="40" rx="10" fill="#0FAFE9" fill-opacity="0.1"/>
<path d="M30.007 19.2334V20C30.006 21.797 29.3997 23.5456 28.2788 24.9849C27.1578 26.4242 25.5822 27.4771 23.7869 27.9866C21.9916 28.4961 20.0727 28.4349 18.3166 27.8122C16.5605 27.1894 15.0611 26.0384 14.0421 24.5309C13.0232 23.0234 12.5392 21.2401 12.6624 19.447C12.7856 17.6538 13.5093 15.947 14.7257 14.5809C15.9421 13.2149 17.5859 12.2628 19.412 11.8668C21.2381 11.4708 23.1487 11.652 24.8588 12.3834" stroke="#0FAFE9" stroke-linecap="round" stroke-linejoin="round"/>
<path d="M30.007 13.3333L21.3252 21.675L18.7207 19.175" stroke="#0FAFE9" stroke-linecap="round" stroke-linejoin="round"/>
</svg>
