<svg width="56" height="21" viewBox="0 0 56 21" fill="none" xmlns="http://www.w3.org/2000/svg">
<g clip-path="url(#clip0_19:122)">
<path d="M54.0612 7.1129C53.8045 6.87869 53.4998 6.6929 53.1643 6.56615C52.8289 6.43939 52.4694 6.37415 52.1063 6.37415C51.7432 6.37415 51.3836 6.43939 51.0482 6.56615C50.7128 6.6929 50.408 6.87869 50.1513 7.1129L49.6186 7.59873L49.0859 7.1129C48.5674 6.64004 47.8642 6.37439 47.1309 6.37439C46.3977 6.37439 45.6945 6.64004 45.176 7.1129C44.6575 7.58576 44.3662 8.22709 44.3662 8.89582C44.3662 9.56454 44.6575 10.2059 45.176 10.6787L45.7087 11.1646L49.6186 14.7304L53.5285 11.1646L54.0612 10.6787C54.318 10.4446 54.5217 10.1667 54.6607 9.86077C54.7997 9.55485 54.8712 9.22696 54.8712 8.89582C54.8712 8.56468 54.7997 8.23678 54.6607 7.93086C54.5217 7.62494 54.318 7.347 54.0612 7.1129V7.1129Z" stroke="#0FAFE9" stroke-linecap="round" stroke-linejoin="round"/>
</g>
<path d="M16.8741 7.8V6.252H19.7661V15H18.0381V7.8H16.8741ZM21.5842 8.556C21.6242 7.756 21.9042 7.14 22.4242 6.708C22.9522 6.268 23.6442 6.048 24.5002 6.048C25.0842 6.048 25.5842 6.152 26.0002 6.36C26.4162 6.56 26.7282 6.836 26.9362 7.188C27.1522 7.532 27.2602 7.924 27.2602 8.364C27.2602 8.868 27.1282 9.296 26.8642 9.648C26.6082 9.992 26.3002 10.224 25.9402 10.344V10.392C26.4042 10.536 26.7642 10.792 27.0202 11.16C27.2842 11.528 27.4162 12 27.4162 12.576C27.4162 13.056 27.3042 13.484 27.0802 13.86C26.8642 14.236 26.5402 14.532 26.1082 14.748C25.6842 14.956 25.1722 15.06 24.5722 15.06C23.6682 15.06 22.9322 14.832 22.3642 14.376C21.7962 13.92 21.4962 13.248 21.4642 12.36H23.0962C23.1122 12.752 23.2442 13.068 23.4922 13.308C23.7482 13.54 24.0962 13.656 24.5362 13.656C24.9442 13.656 25.2562 13.544 25.4722 13.32C25.6962 13.088 25.8082 12.792 25.8082 12.432C25.8082 11.952 25.6562 11.608 25.3522 11.4C25.0482 11.192 24.5762 11.088 23.9362 11.088H23.5882V9.708H23.9362C25.0722 9.708 25.6402 9.328 25.6402 8.568C25.6402 8.224 25.5362 7.956 25.3282 7.764C25.1282 7.572 24.8362 7.476 24.4522 7.476C24.0762 7.476 23.7842 7.58 23.5762 7.788C23.3762 7.988 23.2602 8.244 23.2282 8.556H21.5842ZM28.8782 10.512C28.8782 9.128 29.1262 8.044 29.6222 7.26C30.1262 6.476 30.9582 6.084 32.1182 6.084C33.2782 6.084 34.1062 6.476 34.6022 7.26C35.1062 8.044 35.3582 9.128 35.3582 10.512C35.3582 11.904 35.1062 12.996 34.6022 13.788C34.1062 14.58 33.2782 14.976 32.1182 14.976C30.9582 14.976 30.1262 14.58 29.6222 13.788C29.1262 12.996 28.8782 11.904 28.8782 10.512ZM33.7022 10.512C33.7022 9.92 33.6622 9.424 33.5822 9.024C33.5102 8.616 33.3582 8.284 33.1262 8.028C32.9022 7.772 32.5662 7.644 32.1182 7.644C31.6702 7.644 31.3302 7.772 31.0982 8.028C30.8742 8.284 30.7222 8.616 30.6422 9.024C30.5702 9.424 30.5342 9.92 30.5342 10.512C30.5342 11.12 30.5702 11.632 30.6422 12.048C30.7142 12.456 30.8662 12.788 31.0982 13.044C31.3302 13.292 31.6702 13.416 32.1182 13.416C32.5662 13.416 32.9062 13.292 33.1382 13.044C33.3702 12.788 33.5222 12.456 33.5942 12.048C33.6662 11.632 33.7022 11.12 33.7022 10.512Z" fill="#0FAFE9"/>
<defs>
<clipPath id="clip0_19:122">
<rect width="12.0614" height="11" fill="white" transform="translate(43.5879 5)"/>
</clipPath>
</defs>
</svg>
